<svg width="23" height="23" viewBox="0 0 23 23" fill="none" xmlns="http://www.w3.org/2000/svg">
<path d="M1.5 1.25H2.80616C3.05218 1.25 3.17519 1.25 3.27418 1.29524C3.36142 1.33511 3.43535 1.39922 3.48715 1.47995C3.54593 1.57154 3.56333 1.69332 3.59812 1.93686L4.07143 5.25M4.07143 5.25L5.12332 12.9814C5.25681 13.9625 5.32355 14.4531 5.5581 14.8223C5.76478 15.1477 6.06108 15.4064 6.41135 15.5674C6.80886 15.75 7.30394 15.75 8.29411 15.75H16.852C17.7945 15.75 18.2658 15.75 18.651 15.5804C18.9905 15.4309 19.2818 15.1898 19.4923 14.8842C19.7309 14.5376 19.8191 14.0747 19.9955 13.1488L21.3191 6.19969C21.3812 5.87381 21.4122 5.71087 21.3672 5.5835C21.3278 5.47177 21.2499 5.37768 21.1475 5.31802C21.0308 5.25 20.865 5.25 20.5332 5.25H4.07143ZM9.5 20.25C9.5 20.8023 9.05228 21.25 8.5 21.25C7.94772 21.25 7.5 20.8023 7.5 20.25C7.5 19.6977 7.94772 19.25 8.5 19.25C9.05228 19.25 9.5 19.6977 9.5 20.25ZM17.5 20.25C17.5 20.8023 17.0523 21.25 16.5 21.25C15.9477 21.25 15.5 20.8023 15.5 20.25C15.5 19.6977 15.9477 19.25 16.5 19.25C17.0523 19.25 17.5 19.6977 17.5 20.25Z" stroke="white" stroke-width="2" stroke-linecap="round" stroke-linejoin="round"/>
</svg>
